<svg width="348" height="348" viewBox="0 0 348 348" fill="none" xmlns="http://www.w3.org/2000/svg">
<path d="M0 80C0 35.8172 35.8172 0 80 0H174V174H0V80Z" fill="#4286F5"/>
<path d="M174 174H348V268C348 312.183 312.183 348 268 348H174V174Z" fill="#34A853"/>
<path d="M0 174H174V348H80C35.8172 348 0 312.183 0 268V174Z" fill="#FABD03"/>
<path d="M174 0H268C312.183 0 348 35.8172 348 80V174H174V0Z" fill="#EA4235"/>
<path fill-rule="evenodd" clip-rule="evenodd" d="M231.013 282.96C236.049 282.96 240.176 278.935 240.176 274.04V225.153C243.311 198.798 254.88 206.626 268.492 214.777C301.4 234.477 323.265 182.658 296.667 166.679C275.794 154.138 266.753 175.7 251.462 173.475C245.556 172.605 241.45 166.396 240.155 156.95V121.635C240.155 116.72 236.029 112.715 230.993 112.715H188.902C154.153 108.427 184.998 89.7179 184.998 72.3031C185.019 58.3267 172.013 47 155.974 47C139.954 47 125.25 58.3267 125.25 72.3031C125.25 88.7268 157.167 108.427 121.933 112.715H69.1625C64.1262 112.715 60 116.72 60 121.635V156.869C62.6901 171.897 73.1268 175.376 86.4964 165.465C91.0069 162.108 98.6119 158.204 104.113 158.204C118.454 158.204 130.104 170.845 130.104 186.44C130.104 202.034 118.474 218.114 104.113 218.114C98.9962 218.114 94.2228 216.496 90.1776 213.685C90.1776 214.878 65.097 191.739 60 220.056V274.08C60 278.995 64.1262 283 69.1625 283C97.4186 283 125.634 283 153.87 282.98C154.983 277.822 151.362 271.916 147.964 266.799C121.225 226.488 225.249 222.463 198.509 268.053C197.195 270.298 195.88 272.482 194.869 274.606C193.594 277.256 192.745 280.492 192.927 282.98L231.013 282.96Z" fill="white"/>
</svg>
