<svg width="348" height="348" viewBox="0 0 348 348" fill="none" xmlns="http://www.w3.org/2000/svg">
<rect width="348" height="348" rx="80" fill="#2A2C2E"/>
<g clip-path="url(#clip0_1_2)">
<path d="M174 196.64C186.503 196.64 196.639 186.504 196.639 174C196.639 161.496 186.503 151.36 174 151.36C161.497 151.36 151.361 161.496 151.361 174C151.361 186.504 161.497 196.64 174 196.64Z" fill="#61DAFB"/>
<path d="M174 220.385C241.091 220.385 295.478 199.618 295.478 174C295.478 148.382 241.091 127.615 174 127.615C106.909 127.615 52.5217 148.382 52.5217 174C52.5217 199.618 106.909 220.385 174 220.385Z" stroke="#61DAFB" stroke-width="10"/>
<path d="M133.832 197.193C167.377 255.298 212.555 292.018 234.739 279.209C256.924 266.4 247.714 208.913 214.169 150.807C180.623 92.7022 135.445 55.9823 113.261 68.7912C91.0764 81.6 100.286 139.087 133.832 197.193Z" stroke="#61DAFB" stroke-width="10"/>
<path d="M133.831 150.807C100.286 208.913 91.0764 266.4 113.261 279.209C135.445 292.018 180.623 255.298 214.169 197.193C247.714 139.087 256.924 81.6 234.739 68.7912C212.555 55.9823 167.377 92.7022 133.831 150.807Z" stroke="#61DAFB" stroke-width="10"/>
</g>
<defs>
<clipPath id="clip0_1_2">
<rect width="254" height="226" fill="white" transform="translate(47 61)"/>
</clipPath>
</defs>
</svg>
