<svg width="348" height="348" viewBox="0 0 348 348" fill="none" xmlns="http://www.w3.org/2000/svg">
<rect width="348" height="348" rx="80" fill="#2D79C7"/>
<path fill-rule="evenodd" clip-rule="evenodd" d="M230.992 277.409V300.282C234.714 302.188 239.117 303.617 244.199 304.57C249.281 305.523 254.638 306 260.269 306C265.757 306 270.971 305.476 275.91 304.427C280.849 303.379 285.18 301.652 288.903 299.245C292.625 296.839 295.572 293.694 297.743 289.81C299.914 285.927 301 281.126 301 275.408C301 271.262 300.38 267.629 299.139 264.508C297.898 261.387 296.109 258.611 293.77 256.181C291.432 253.751 288.628 251.57 285.359 249.64C282.09 247.711 278.404 245.888 274.3 244.173C271.293 242.934 268.597 241.731 266.211 240.563C263.825 239.395 261.796 238.204 260.126 236.989C258.456 235.774 257.167 234.487 256.261 233.13C255.354 231.771 254.9 230.235 254.9 228.519C254.9 226.947 255.306 225.529 256.118 224.266C256.929 223.003 258.074 221.92 259.553 221.014C261.033 220.109 262.846 219.406 264.994 218.905C267.142 218.405 269.527 218.155 272.152 218.155C274.061 218.155 276.077 218.298 278.201 218.584C280.324 218.87 282.46 219.311 284.608 219.906C286.755 220.502 288.843 221.253 290.871 222.158C292.899 223.063 294.772 224.111 296.49 225.303V203.931C293.007 202.597 289.201 201.608 285.073 200.965C280.945 200.322 276.208 200 270.864 200C265.423 200 260.269 200.584 255.402 201.751C250.534 202.919 246.251 204.741 242.552 207.219C238.854 209.697 235.931 212.854 233.784 216.69C231.636 220.526 230.563 225.112 230.563 230.449C230.563 237.263 232.531 243.077 236.468 247.89C240.405 252.702 246.382 256.776 254.4 260.112C257.549 261.399 260.484 262.661 263.204 263.9C265.924 265.139 268.275 266.426 270.255 267.76C272.235 269.094 273.798 270.548 274.944 272.12C276.089 273.692 276.662 275.479 276.662 277.481C276.662 278.958 276.304 280.328 275.588 281.591C274.872 282.854 273.786 283.949 272.331 284.879C270.876 285.808 269.062 286.534 266.891 287.058C264.719 287.583 262.178 287.845 259.267 287.845C254.304 287.845 249.389 286.975 244.521 285.236C239.654 283.497 235.144 280.888 230.992 277.409ZM192.499 221.055H221.872V202.284H140V221.055H169.23V304.629H192.499V221.055Z" fill="white"/>
</svg>
