<svg width="348" height="348" viewBox="0 0 348 348" fill="none" xmlns="http://www.w3.org/2000/svg">
<rect width="348" height="348" rx="80" fill="#2B3A42"/>
<path d="M174.064 54L280.127 113.993V234.007L174.064 294L68 234.007V113.993L174.064 54Z" fill="white"/>
<path d="M261.189 229.868L177.572 277.172V240.338L229.672 211.67L261.189 229.868ZM266.917 224.689V125.778L236.332 143.455V207.039L266.917 224.689ZM86.6091 229.868L170.227 277.172V240.338L118.099 211.67L86.6091 229.868ZM80.8811 224.689V125.778L111.467 143.455V207.039L80.8811 224.689ZM84.4714 119.365L170.227 70.8551V106.456L115.276 136.686L114.838 136.933L84.4714 119.365ZM263.327 119.365L177.572 70.8551V106.456L232.522 136.658L232.961 136.905L263.327 119.365Z" fill="#8ED6FB"/>
<path d="M170.227 231.951L118.812 203.668V147.676L170.227 177.357V231.951ZM177.572 231.951L228.987 203.695V147.676L177.572 177.357V231.951ZM122.293 141.208L173.899 112.842L225.506 141.208L173.899 170.999L122.293 141.208Z" fill="#1C78C0"/>
</svg>
